# xmcd
#
# Track frame offsets:
#	150
#	11357
#	23510
#	31427
#	40047
#	49877
#	59277
#	69390
#	79700
#	89097
#	98717
#	107120
#	116095
#	126050
#	135275
#	144450
#	154135
#	164985
#	173377
#	182010
#	191420
#	200390
#	211267
#	220367
#	230325
#	239770
#	251320
#	263187
#	274132
#
# Disc length: 3765 seconds
#
# Revision: 0
# Processed by: cddbd v1.5.2PL0 Copyright (c) Steve Scherf et al.
# Submitted via: EasyCDDAExtractor 16.0.1.1
#
DISCID=950eb31d
DTITLE=Bonnie Guitar - Dark Moon
DYEAR=1961
DGENRE=Country
TTITLE0=Mister Fire Eyes
TTITLE1=Dark Moon
TTITLE2=Open the Door
TTITLE3=Half Your Heart
TTITLE4=If You See My Love Dancing
TTITLE5=Johnny Vagabond
TTITLE6=Making Believe
TTITLE7=Down Where the Tradewinds Blow
TTITLE8=Letter from Jenny
TTITLE9=There's a New Moon over My Shoulder
TTITLE10=Moonlight and Shadows
TTITLE11=Carolina Moon
TTITLE12=By the Light of the Silvery Moon
TTITLE13=Shine on Harvest Moon
TTITLE14=The Moon Is Low
TTITLE15=Get Out and Under the Moon
TTITLE16=Moonlight on the Colorado
TTITLE17=Moonlight and Roses
TTITLE18=It's Only a Paper Moon
TTITLE19=Prairie Moon
TTITLE20=Roll Along, Kentucky Moon
TTITLE21=Mister Fire Eyes, Pt. 2
TTITLE22=Love Is Over, Love Is Done
TTITLE23=Stand There Mountain
TTITLE24=I Found You Out
TTITLE25=Love by the Jukebox Light
TTITLE26=Big Mike
TTITLE27=A Very Precious Love
TTITLE28=If You'll Be the Teacher
EXTD=
EXTT0=
EXTT1=
EXTT2=
EXTT3=
EXTT4=
EXTT5=
EXTT6=
EXTT7=
EXTT8=
EXTT9=
EXTT10=
EXTT11=
EXTT12=
EXTT13=
EXTT14=
EXTT15=
EXTT16=
EXTT17=
EXTT18=
EXTT19=
EXTT20=
EXTT21=
EXTT22=
EXTT23=
EXTT24=
EXTT25=
EXTT26=
EXTT27=
EXTT28=
PLAYORDER=
